/* XPM */
static char *result[] = {
/* columns rows colors chars-per-pixel */
"32 32 181 2 ",
"   c #21231E",
".  c #202421",
"X  c #262926",
"o  c #2B2A23",
"O  c #252A28",
"+  c #292D29",
"@  c #302D25",
"#  c #313028",
"$  c #3C362C",
"%  c #3E3730",
"&  c #373834",
"*  c #3A3A33",
"=  c #403B2F",
"-  c #413D34",
";  c #4B3F34",
":  c #4F402B",
">  c #50412C",
",  c #5C492F",
"<  c #434136",
"1  c #404038",
"2  c #4B453A",
"3  c #4D4538",
"4  c #574631",
"5  c #5E4A31",
"6  c #554D3E",
"7  c #634F36",
"8  c #66513B",
"9  c #6F593E",
"0  c #4F4C46",
"q  c #544D43",
"w  c #5B4F42",
"e  c #565144",
"r  c #5F5143",
"t  c #5A5849",
"y  c #595651",
"u  c #675947",
"i  c #735B43",
"p  c #725D4D",
"a  c #7C634A",
"s  c #6D6454",
"d  c #6A655D",
"f  c #756453",
"g  c #796853",
"h  c #7C6B53",
"j  c #7E7366",
"k  c #7F7A73",
"l  c #84613B",
"z  c #91693E",
"x  c #E36A37",
"c  c #E36C39",
"v  c #E7733C",
"b  c #E9763E",
"n  c #E9783F",
"m  c #836342",
"M  c #876946",
"N  c #8D6943",
"B  c #83664A",
"V  c #9E7447",
"C  c #836A54",
"Z  c #886955",
"A  c #8A715E",
"S  c #927455",
"D  c #A57747",
"F  c #AF7D4A",
"G  c #B67E47",
"H  c #B77E48",
"J  c #887B65",
"K  c #817468",
"L  c #927B61",
"P  c #9A7964",
"I  c #907C6A",
"U  c #807971",
"Y  c #A97A61",
"T  c #EB7B41",
"R  c #B6814A",
"E  c #B9824A",
"W  c #B78250",
"Q  c #998369",
"!  c #9E8B70",
"~  c #A38468",
"^  c #B6876D",
"/  c #B68D6B",
"(  c #AB8C72",
")  c #BC8E74",
"_  c #AC967A",
"`  c #B79476",
"'  c #B89A7C",
"]  c #C4854A",
"[  c #C3884C",
"{  c #D39352",
"}  c #D99753",
"|  c #EF8144",
" . c #F18446",
".. c #F28748",
"X. c #F48949",
"o. c #E1924F",
"O. c #F6934F",
"+. c #F9944E",
"@. c #F68F50",
"#. c #E19350",
"$. c #E99551",
"%. c #E49C55",
"&. c #EA9C54",
"*. c #E1985B",
"=. c #F69650",
"-. c #F89651",
";. c #F69852",
":. c #F99D54",
">. c #F79C5B",
",. c #FAA257",
"<. c #F7A458",
"1. c #C68E6E",
"2. c #CA8E6C",
"3. c #C8946C",
"4. c #D99C6F",
"5. c #C68E72",
"6. c #C29574",
"7. c #CD9376",
"8. c #C59A73",
"9. c #C2967B",
"0. c #C89778",
"q. c #C59A7C",
"w. c #CD9B7B",
"e. c #D09573",
"r. c #D49872",
"t. c #D29B7D",
"y. c #DCA074",
"u. c #D4A279",
"i. c #DBA77C",
"p. c #DBAA7D",
"a. c #FBA063",
"s. c #E1A777",
"d. c #E2A779",
"f. c #E5AB7C",
"g. c #F9AE75",
"h. c #A7988E",
"j. c #B39985",
"k. c #C69E81",
"l. c #C9A385",
"z. c #C6AC86",
"x. c #C6AB8A",
"c. c #D5A182",
"v. c #DBA686",
"b. c #D4A985",
"n. c #DCA788",
"m. c #D6AA8B",
"M. c #DDAA8A",
"N. c #C9B18C",
"B. c #DBB58B",
"V. c #DBB28C",
"C. c #C9AF9D",
"Z. c #DDAF90",
"A. c #CAB592",
"S. c #C8B794",
"D. c #D5B592",
"F. c #DDB593",
"G. c #D5BC97",
"H. c #DCBC94",
"J. c #E4AD84",
"K. c #E4AE8A",
"L. c #E5B282",
"P. c #E6B28B",
"I. c #E8B38C",
"U. c #E5BB8D",
"Y. c #E8B989",
"T. c #E7B694",
"R. c #E8B796",
"E. c #E6BB95",
"W. c #E6BD9A",
"Q. c #E8BE9A",
"!. c #F3BC91",
"~. c #D2C09A",
"^. c #DBC39C",
"/. c #E5C49B",
"(. c #E8C59B",
"). c #E9CA9E",
"_. c #E9C6A0",
"`. c #E7CCA3",
"'. c #E9CCA4",
"]. c #E9D1A6",
"[. c #E9D3A9",
/* pixels */
"[.[.[.[.].(.f.4.2.7.n.T.R.T.R.Q.`.(.L.f.K.v.7.7.v.R.T.P.f.f.K.R.",
"[.[.[.].).U.p.4.e.t.K.T.R.R.Q.).'.(.L.s.v.c.t.t.K.R.W.U.f.f.P.T.",
"[.[.[.(.U.p.r.e.c.M.T.T.R.Q.(.'.).(.L.y.r.t.v.K.T.E._.E.L.f.P.T.",
"(.(.(./.L.y.1.3.c.Z.F.F.m.V.F.H.H.B.u.3.1.0.m.F.E.W./.E.L.J.P.R.",
"L.L.L.L.J.w.Y Z p e 2 1 < = = ; < = = $ = - 6 s Q ' b.L.P.P.T.R.",
"f.d.y.y.w.) P f e * O .                     # 3 g Q ) u.T.E.T.R.",
"P.v.r.2.Y P I j d y 0 3 > : ; ; > : : : ; > , 8 a S ~ ` W._.W.R.",
"v.c.t.0.Z f j U k U K C l l l l l l l l l l l l l a C J ^.'._.(.",
"e.u.D.D.s e d k ! h.j./ W G G H H H G H E E F D N a r u ~.[.`.).",
"w.m./.^.e & y k h.C.F.i.*.o.o.#.#.#.#.#.#.} { E z 7 = 1 N.^.H.H.",
"H.^.`.H.< X 0 K j.F.!.g.>.=.O.O.=.-.-.=.:.<.&.[ z 5 + + ` t.w.w.",
"[.[.[.H.<   3 M / d.g.a.@.............X.-.,.&.] z , o o / 7.7.0.",
"[.[.[.H.*   : l W } >.@.T T b b b b n T ..-.$.] z , o X ) n.n.n.",
"(.).(.B.-   ; l H #.O...T v c c c c c b  .+.$.] z 7 o X 9.W.R.T.",
"L.L.L.p.-   : l H o.=...v c c c x x c b  .+.$.] z , o o k.R.R.R.",
"f.f.f.p.-   ; l H #.=...b c c c x x c v T +.$.] z , o o q.I.P.K.",
"P.K.P.V.-   : l G } O...b c x c c x c v T -.$.[ z , o o 0.f.f.f.",
"Q.Q.(.F.<   : l G #.=...b c x x x c x v  .+.$.] z , o o 8.L.L.L.",
"`.`.`.H.-   : l G o.=.X.n v c c c c c b  .+.$.] z 5 @ o u.(.(.(.",
"[.[.[.U.-   : l G o.;.X.T b v v v v v T X.-.$.] z , o o N.].'.).",
"[.[.[.H.-   ; l H #.:.+.X.|  .| | | | ..X.:.&.[ z , o X N.[.(./.",
"'.'.'.B.- . > l E %.<.,.+.O.O.O.O.O.O.=.:.<.&.[ z 5 @ + N.'._.Q.",
"W.W.Q.b.; @ 4 l F { %.&.$.$.$.O.$.$.$.$.&.&.} E z 7 $ * S.[.'.'.",
"M.n.n.t.r 3 8 m V R [ [ ] ] ] H ] ] ] ] [ [ E D N 9 6 t ^.[.[.[.",
"7.7.7.7.C f a B N N z z z z z z z z z z z z N N M h h j ^.[.[.[.",
"7.7.7.t.( ~ L C i 7 7 4 , , 4 7 > , , , , 5 7 i C L ( _ G.^.H.H.",
"n.n.n.F.D.x.( C w = @     o   o o   o o o o $ q g Q j.l.c.w.w.w.",
"T.T.W.W.W.D.` A r % @ X o o o o + # + + o + & q h ~ 0.t.w.7.7.7.",
"R.Q._._._.W.Z.k.) ^ ) 9.q.6.3.8.z.S.S.A.x.l.l.k.6.5.5.t.c.v.n.n.",
"Q._.'.'.W.R.R.M.t.e.v.T.T.Y.Y.U.).[.'._.R.T.Z.v.t.7.7.c.K.T.W.W.",
"'.'.[._.Q.R.R.n.7.7.v.P.J.L.U.).[.'._.Q.T.K.t.7.c.n.n.M.T.W._.'.",
"[.[.[.'.Q.R.T.n.7.7.v.P.f.L.(.[.[.'.Q.R.T.K.7.7.n.T.T.T.T.W.'.[."
};
