/* XPM */
static char *result[] = {
/* columns rows colors chars-per-pixel */
"32 32 183 2 ",
"   c #161B1A",
".  c #1A1F1D",
"X  c #1C201E",
"o  c #3B1F23",
"O  c #1C2220",
"+  c #292324",
"@  c #2A2A24",
"#  c #33262B",
"$  c #392529",
"%  c #3B292E",
"&  c #3A342E",
"*  c #3D3A32",
"=  c #4C2227",
"-  c #432529",
";  c #482A2C",
":  c #53262B",
">  c #53282D",
",  c #403627",
"<  c #473A2A",
"1  c #50382A",
"2  c #552B36",
"3  c #433C35",
"4  c #4B3E36",
"5  c #7A2932",
"6  c #54432D",
"7  c #5C482E",
"8  c #434231",
"9  c #4A4037",
"0  c #4E453B",
"q  c #554B34",
"w  c #53463A",
"e  c #53493D",
"r  c #54523A",
"t  c #6E4C39",
"y  c #6B3344",
"u  c #7A3242",
"i  c #7E3649",
"p  c #534D42",
"a  c #545145",
"s  c #6E5541",
"d  c #715A4A",
"f  c #796554",
"g  c #7D735E",
"h  c #922E3E",
"j  c #95313F",
"k  c #A42F3D",
"l  c #A3303D",
"z  c #8A643B",
"x  c #8A6A3F",
"c  c #983546",
"v  c #8E3D55",
"b  c #923C55",
"n  c #9E3C53",
"m  c #B93C43",
"M  c #B6384F",
"N  c #A63D52",
"B  c #A93D53",
"V  c #B53A50",
"C  c #B83B51",
"Z  c #C4374D",
"A  c #C5394D",
"S  c #CB394E",
"D  c #DE364A",
"F  c #D4394D",
"G  c #DD394B",
"H  c #CD3A50",
"J  c #E1374B",
"K  c #E1394C",
"L  c #985A4D",
"P  c #954155",
"I  c #984656",
"U  c #AB454A",
"Y  c #A55457",
"T  c #AF5D57",
"R  c #B15E57",
"E  c #B25E58",
"W  c #907757",
"Q  c #95745D",
"!  c #B16944",
"~  c #B67E47",
"^  c #B67F49",
"/  c #B26159",
"(  c #9D7D66",
")  c #AA6461",
"_  c #DD454F",
"`  c #D84F4B",
"'  c #C45F56",
"]  c #D85D55",
"[  c #E24651",
"{  c #E85A56",
"}  c #E55B59",
"|  c #C26C49",
" . c #C77659",
".. c #E66A5E",
"X. c #C36A60",
"o. c #C67F63",
"O. c #B9814A",
"+. c #A5815E",
"@. c #B98A52",
"#. c #9E8168",
"$. c #A68565",
"%. c #A8856B",
"&. c #A68D6E",
"*. c #BF8B6F",
"=. c #B99A61",
"-. c #A68C72",
";. c #A98E74",
":. c #A69374",
">. c #AB9177",
",. c #AA987B",
"<. c #AD9A7E",
"1. c #B9A56A",
"2. c #CB8C4E",
"3. c #D1914F",
"4. c #D68A56",
"5. c #DB8B5A",
"6. c #CB9758",
"7. c #D19755",
"8. c #E98957",
"9. c #F28B57",
"0. c #E79D56",
"q. c #E5945A",
"w. c #E9965B",
"e. c #F3A25B",
"r. c #CA8C6B",
"t. c #D89866",
"y. c #C58F71",
"u. c #C69374",
"i. c #CC9375",
"p. c #C69778",
"a. c #CA9A7C",
"s. c #D09573",
"d. c #D49972",
"f. c #D29B7D",
"g. c #EF8D6C",
"h. c #F38D6D",
"j. c #EA9760",
"k. c #DBA174",
"l. c #D7A07F",
"z. c #DDA57B",
"x. c #DDAC7D",
"c. c #EBAE69",
"v. c #E4A972",
"b. c #E2A779",
"n. c #E5AB7C",
"m. c #F7AE7A",
"M. c #E6B57D",
"N. c #EBC37B",
"B. c #AE9F81",
"V. c #ACA182",
"C. c #BDA889",
"Z. c #D59F80",
"A. c #D6A383",
"S. c #DBA583",
"D. c #DDAB84",
"F. c #D5AB8B",
"G. c #DEAA8A",
"H. c #DEB487",
"J. c #DFB28E",
"K. c #D6B692",
"L. c #DFB492",
"P. c #DDBB95",
"I. c #E5AE85",
"U. c #E5AF89",
"Y. c #E5B283",
"T. c #E6B38C",
"R. c #E5BA8C",
"E. c #E6B594",
"W. c #E8B796",
"Q. c #E7BB94",
"!. c #E8BF92",
"~. c #E6BD99",
"^. c #E8BD9B",
"/. c #DCC39C",
"(. c #E7C196",
"). c #E5C49B",
"_. c #E8C59A",
"`. c #E8CA9E",
"'. c #E8C5A0",
"]. c #E1CBA3",
"[. c #E8CBA3",
"{. c #E9D1A6",
"}. c #E9D3A9",
/* pixels */
"}.}.{.}.}._.M.d.r.i.G.E.W.E.W.^.[._.Y.n.I.S.i.i.S.E.W.T.n.n.U.W.",
"}.}.{.{.`.R.z.d.i.Z.U.E.W.E.^.'.[._.Y.b.I.Z.f.Z.G.W.^.T.n.n.T.W.",
"}.}.}.`.R.x.d.d.Z.U.E.E.W.~._.[.}.(.M.k.s.f.Z.U.E.^.'.~.n.n.U.W.",
"_.`._.!.Y.k.r.i.S.E.~.~.E.E.Q._.(.R.x.d.s.Z.L.).^.^.).~.Y.I.T.E.",
"Y.Y.Y.Y.Y.l.i.i.G.~._.(.R.n.n.Y.M.z.d.s.S.G.).[.[.(.R.Y.T.T.W.W.",
"n.b.k.k.S.A.A.A.L.)._.Q.Y.n.n.n.b.z.f.Z.E.)._.`._.!.Y.I.Q.Q.E.W.",
"Y.S.i.r.y.a.F.K./.R.H.I.D.G.I.G.D.D.A.F.P.P.H.x.n.x.G.J.P.).~.E.",
"S.p.%.Q W #.#.:.:.&.$.$.&.&.;.;.;.;.;.:.-.&.$.+.+.$.-.>.B.C.K.^.",
"u.%.f e 0 e e w w w w w p p p p p p p p e w w w w e e p a g C./.",
"p.#.p # - : : : : : : : > > > > > > > : : : : : > ; % # @ p ;.K.",
"K.:.p $ 5 k l l l l l l k k k k l l k k k k c k k j u 2 # 9 ( *.",
"].V.a > k _ ......} _ G F G G G G G G G G K G K D A N y % 4 Q u.",
"/.B.p : l { h.m.m.h.{ K K K K J K K J K K K K K J H N y % 0 ( Z.",
":.g 3 = l { h.m.m.g.{ K J J K K G K K K G K K K D S N y % * f %.",
"0 & @ : k [ { ......[ G D D K K K G K K G K K K J H N y % @ * p ",
"X @ < t m K K K G K J J K K K G K K G K K K K K J Z N i 2 o + . ",
"  , z | ` D J D J J G G J K K K G G K G G G K K G S N n c 5 o   ",
"  6 ~ 9.{ J J J J G H A Z Z Z Z A A A S S S G G G A N B Z j =   ",
"  6 O.9.{ J D J F H C N N N U N N N N U N V S D G S N B Z k =   ",
"  7 @.w.] S Z Z Z M n I ) ) / R E E T Y P N M Z A V n B Z k =   ",
"  q =.v.X.B B B N n b ) u.v.7.5.5.5.5. .T P N N U n P N S l =   ",
"X r 1.M.r./ R R E T E o.M.c.6.O.^ 2.0.7. ./ R R R R R ' ` U >   ",
"X r 1.N.v.5.5.5.5.5.5.j.c.7.x 7 7 z 2.e.w.5.5.5.5.5.q.8.8.! 1 X ",
"  8 W 1.t.5.5.5.5.5.5.w.e.3.z 7 7 L 3.e.w.5.5.5.5.5.4.4.O.z ,   ",
"X @ 8 s L T / R R T R  .q.0.2.~ ~ 2.0.q. .R T T R R T L t < @ O ",
"* & @ - i N B B N N P Y  .5.5.5.5.5.5. .Y v v v v b v y % @ * 0 ",
"+.f & - h Z S A Z M n I Y R R / R R R Y P v b v v v v y $ & d Q ",
"F.&.e : l K K K K F M N B B B B B B B B B B B B B N b y % 3 Q *.",
"L.;.a > k D G D F F F A Z Z Z Z Z Z Z Z Z Z Z Z Z M b y % w ( Z.",
"P.,.a - 5 k l l k k k k l k k k k k j l j k k k k c u 2 # p >.P.",
").<.p + o = = = = = = = = = = = = = = = = = = = = = o + X p ,.'.",
"].B.p X                                                 X p B.]."
};
