/* XPM */
static char *result[] = {
/* columns rows colors chars-per-pixel */
"32 32 182 2 ",
"   c #0E1417",
".  c #161B1B",
"X  c #1C1E1E",
"o  c #231C1E",
"O  c #1C211F",
"+  c #281D24",
"@  c #3A1F23",
"#  c #272523",
"$  c #2B2A25",
"%  c #2D2D29",
"&  c #3B2427",
"*  c #32222A",
"=  c #3A2229",
"-  c #3C282E",
";  c #3A342E",
":  c #3E3932",
">  c #412127",
",  c #4B2227",
"<  c #44262A",
"1  c #55292C",
"2  c #433828",
"3  c #4A2734",
"4  c #522C37",
"5  c #512C38",
"6  c #493D35",
"7  c #792732",
"8  c #792933",
"9  c #59482F",
"0  c #424231",
"q  c #4B453B",
"w  c #534939",
"e  c #534C3C",
"r  c #55523A",
"t  c #5B563D",
"y  c #5E583E",
"u  c #6D4938",
"i  c #60573E",
"p  c #6C3444",
"a  c #7D3342",
"s  c #743649",
"d  c #534C42",
"f  c #535044",
"g  c #6E5744",
"h  c #725C4A",
"j  c #796352",
"k  c #992B3C",
"l  c #92303E",
"z  c #A32F3D",
"x  c #A3303D",
"c  c #854F39",
"v  c #8A663C",
"b  c #953140",
"n  c #883752",
"m  c #8C3B55",
"M  c #923D55",
"N  c #9D3B52",
"B  c #B6384F",
"V  c #A53C52",
"C  c #A93D53",
"Z  c #B93C51",
"A  c #C4374D",
"S  c #C4394D",
"D  c #C9394E",
"F  c #D5364A",
"G  c #D23A4D",
"H  c #DD384A",
"J  c #E2384C",
"K  c #97584D",
"L  c #8F4056",
"P  c #914156",
"I  c #994455",
"U  c #BD5245",
"Y  c #A74552",
"T  c #AA4353",
"R  c #A45356",
"E  c #A95255",
"W  c #AE5C56",
"Q  c #A95758",
"!  c #B05C57",
"~  c #B35F58",
"^  c #8A7449",
"/  c #936859",
"(  c #897E54",
")  c #94725C",
"_  c #B46359",
"`  c #9F7D67",
"'  c #AE6C65",
"]  c #B16D65",
"[  c #B37067",
"{  c #CF5252",
"}  c #D15252",
"|  c #D65951",
" . c #C36056",
".. c #C67559",
"X. c #C87459",
"o. c #D77457",
"O. c #D97457",
"+. c #8E8056",
"@. c #B68A52",
"#. c #A48169",
"$. c #BA8668",
"%. c #BB9E62",
"&. c #A88B73",
"*. c #BC8E72",
"=. c #AC967B",
"-. c #B5A369",
";. c #B9A56B",
":. c #BBA96C",
">. c #CA884E",
",. c #D68D57",
"<. c #DA8659",
"1. c #DC8D5A",
"2. c #D19857",
"3. c #E38956",
"4. c #EB8758",
"5. c #E79859",
"6. c #D1A15E",
"7. c #F3A45C",
"8. c #C98667",
"9. c #CA8768",
"0. c #CC8E6B",
"q. c #C4946D",
"w. c #D89A68",
"e. c #CC9275",
"r. c #C89978",
"t. c #D19673",
"y. c #D59972",
"u. c #D39B7D",
"i. c #C3AA6F",
"p. c #CAB16F",
"a. c #CCA077",
"s. c #D9A977",
"d. c #DBAE7B",
"f. c #CBB572",
"g. c #CEB875",
"h. c #D1BB76",
"j. c #DDB17C",
"k. c #E6A469",
"l. c #E8A669",
"z. c #F0B668",
"x. c #FBBC6B",
"c. c #E1A779",
"v. c #E5AB7D",
"b. c #E6B97C",
"n. c #E8C278",
"m. c #E9CC7F",
"M. c #F2C57D",
"N. c #F8CD7B",
"B. c #F6D07C",
"V. c #FAD17E",
"C. c #AE9F81",
"Z. c #C69F81",
"A. c #CDA383",
"S. c #CDAB84",
"D. c #CDA788",
"F. c #CEAB8B",
"G. c #D6A485",
"H. c #DBA483",
"J. c #DEAA8A",
"K. c #CEB38B",
"L. c #DFB593",
"P. c #DFB896",
"I. c #E2AE8B",
"U. c #E5B281",
"Y. c #E5BE80",
"T. c #E6B38C",
"R. c #E6B88D",
"E. c #E7B695",
"W. c #E8B796",
"Q. c #E7B897",
"!. c #E9B896",
"~. c #E9BE9A",
"^. c #E9C982",
"/. c #F0CF85",
"(. c #F9D783",
"). c #E2C59C",
"_. c #E9C69B",
"`. c #E9C79B",
"'. c #E3C9A2",
"]. c #E9CCA4",
"[. c #EAD1A7",
"{. c #EAD4A9",
/* pixels */
"{.{.{.{.{.`.U.y.0.e.J.E.E.E.W.~.]._.U.v.I.H.e.e.H.E.!.T.v.v.I.W.",
"{.{.{.[.`.R.s.y.t.G.J.E.W.W.!.].]._.U.c.s.G.u.G.I.W.!.R.v.v.T.W.",
"{.{.{.`.R.d.y.y.a.I.E.Q.W.~.'.].{.`.U.s.y.u.G.E.E.~.].~.U.v.T.W.",
"K.K.K.K.a.$.$.$.r.A.F.D.A.A.S.K.K.a.q.8.$.*.Z.F.D.F.F.D.a.r.u.A.",
"% % % % % $ $ $ $ % % % % $ % % % % $ $ $ $ % % % % $ $ % $ % % ",
"  o @ > & * * * * * * * * * * * * * * * * @ * * * * * @ , & X . ",
". & 8 l a p p p p p p p p p p p p p p p p p p p p p p n l 7 @ . ",
". , z D Z T E R I I R E T V V V V V V Y R R P P R E T B D z , . ",
". , z F G { o.X.Q Q X.O.} D D D D D D } O.X.Q Q ..o.{ D F z , . ",
". @ 7 k x U <.<.! ! <.4.| S A A A A D | 4.<.! ! <.3.{ x k 7 @ . ",
". o @ , 1 c >.1._ _ 1.3. .T V C C C T  .3.1._ _ ,.>.c 1 , @ o . ",
". $ 0 r g ^ 2.k.9.9.l.l.8.[ ] ] ' ' [ 9.l.l.9.9.k.2.^ i r 0 # . ",
". 2 +.-.-.p.n.m.b.b.M.M.b.j.d.d.j.d.j.b.M.M.b.b.M.n.f.;.-.+.0 . ",
". r -.m.g.:.s.j.j.j.j.j.j.j.d.j.j.d.d.j.d.j.j.j.d.d.d.^.m.-.w O ",
"O r ;.g.+.h / ' [ ' ' ' ' ' [ ] ' ] ' ' ' ' ' ' ] ' [ e.n.-.r . ",
"O r -.;.y % 5 s m P P L L L L L P L P L L P P L M M P ] h.-.r O ",
". t -.-.e X o 3 s n m m m m m m m m m m m m m m m n M ' d.-.r . ",
". r -.-.r .   # 5 p n m m m m m m m m m m m m m m n M ] d.-.r . ",
"O r -.-.y O . O * 4 s P M L P L M P m P L L L P m m P ] j.;.r O ",
". r -.f.( t r r r g / ' ' ' ] [ [ ' ' ' ' ' ' ' ' ' ] q.Y.;.r . ",
". r -.^.h.:.:.:.:.i.s.j.j.j.j.s.d.H.j.j.j.j.j.j.j.j.v.^./.-.r . ",
"O r :.(.V.B.B.B.B.B.B.V.N.n.p.-.-.p.n.B.V.V.V.V.V.V.V.V.B.%.e . ",
". r -.m.N.x.x.x.x.x.x.N.x.6.v t t ^ 6.x.N.x.x.x.x.x.x.x.z.@.9 . ",
". 0 +.;.w.1.1.3.1.1.3.5.7.2.v 9 9 v 2.7.5.3.3.1.1.1.,.,.>.v ; . ",
"O $ 0 g K W ! ! W W W ..3.5.>.@.@.>.5.5...W W W W W W K u 2 $ O ",
"2 ; $ < a V C V V V I R ..,.1.<.<.1.<.X.R P m m P P m p - $ : q ",
"#.j : > b A D D S B V I Q ! ~ ~ ! ! ! R I m m m m m m p = ; h ) ",
"F.&.e 1 z J J J H G B V T C C T C T C C C C C C C V M p - 6 ) *.",
"E.=.d 1 z F J H H H D S S A A A S S A S A D D D S B N p - w ` G.",
"L.=.d < 7 z x x z z z z k z z z z z z z z z k x x l a 5 * e &.P.",
").=.f # @ , , , , , , , , , , , , , , , , , , , , > * + # d =.'.",
"'.C.d X . . . . . . . . . . . . . . . . . . . . . . . . O d =.'."
};
