/* XPM */
static char *result[] = {
/* columns rows colors chars-per-pixel */
"32 32 43 1 ",
"  c #C98B6B",
". c #D1956F",
"X c #D7996F",
"o c #DC9D6E",
"O c #CA8E72",
"+ c #CB9475",
"@ c #CE9678",
"# c #CF9B7C",
"$ c #D09573",
"% c #DD9F73",
"& c #D19A7C",
"* c #DEA175",
"= c #DFA779",
"- c #DFA87A",
"; c #E3A777",
": c #E5A979",
"> c #E5B17E",
", c #D2A483",
"< c #D9A485",
"1 c #DEAA8A",
"2 c #DAB490",
"3 c #E5AC82",
"4 c #E1AD8D",
"5 c #E6B282",
"6 c #E7B28C",
"7 c #E8B48D",
"8 c #E7B989",
"9 c #E4B492",
"0 c #E8B695",
"q c #E5BC92",
"w c #E8B895",
"e c #E9BC9A",
"r c #DFC099",
"t c #E8C294",
"y c #E2C49C",
"u c #E9C39D",
"i c #E9C99D",
"p c #E6C6A0",
"a c #E9C6A0",
"s c #EACDA4",
"d c #EACFA8",
"f c #E9D1A7",
"g c #EAD4AB",
/* pixels */
"gggggi>o  40e0wedi>:94OO10w6::0w",
"gggfft-X+&4000eufi5;3<@@4ee7::7w",
"gggf8=.+<4900eaggi>*$@<49esu::6w",
"iiit>* +4eee07uiit-X+#9ueuae5390",
">>>583OO4eau5:>>>=.+=9afdi8>6900",
":;*%<<#,9uit5:::;=$&2eiiiq55qew0",
"73+ O#2psi6566666449aa8>>567aae0",
"1<,++,qait>5qeeuueeuat5::50aggae",
"O#2ryq8>>56qiddddddi856660ifggff",
"@,pgft3;;56efgsuiiit>3weeuffpryr",
"rygs8566660edi8>>>>569pddfgu,+@@",
"gggi>:6000euit5;:;:3quffuyy2#OOO",
"gggi>;600eai85666660aggp,+@&<411",
"ifit55qeeagi::9ueueiffp2#OO@2e00",
">>>569addggi>:ufddddgp,#<144000e",
":::5quiiiait88iggfuyy2#@4e009666",
"666qau8:>5>5tsfggp,++&<400e65:::",
"eeeuit8;;::8fggdy2#+O&40e0685>:>",
"dddi85666qtsgggp,#<1449e0936tiai",
"gggi>:9eepfgfsp2##9ee00006;:iggd",
"gggi3;6epfffa9,#<9paew0ww6;>igue",
"dddy:%6edgdse1O 1esse0766658idue",
"uee6$$4udgaee1OO1eeee9:;;5tsggds",
"114<$&4eaae94<@#1766666>>8sggggg",
"OOO@<400eee4&@<1::::;5tiiifggggg",
"+OO&9e00004<+&375>>>>8dgggdpyyyy",
"1119pse004&@<4:5taiiiifduee9,@+@",
"00eusse04<@&46:3igggfddp944<+OOO",
"0easue04&@<4w6;>iggguee9&OO@<111",
"eafde001OO107658sgfae94<&OO&1eeu",
"ddgse001O+1735tsffuee4@@<1140esd",
"gggdee01++17:>sggsew04O 4eew0edf"
};
