/* XPM */
static char *result[] = {
/* columns rows colors chars-per-pixel */
"32 32 186 2 ",
"   c #161C1B",
".  c #1D201E",
"X  c #1D2125",
"o  c #24272A",
"O  c #2B2C2B",
"+  c #2C332F",
"@  c #2F2E37",
"#  c #322F3A",
"$  c #2F3630",
"%  c #333433",
"&  c #353C36",
"*  c #33303A",
"=  c #373F38",
"-  c #3C3B3C",
";  c #543D2B",
":  c #57382C",
">  c #4C3F35",
",  c #423D3C",
"<  c #5C3730",
"1  c #663F39",
"2  c #394139",
"3  c #43443C",
"4  c #4D443A",
"5  c #4D463A",
"6  c #524736",
"7  c #51473C",
"8  c #52493C",
"9  c #654539",
"0  c #6A523E",
"q  c #383440",
"w  c #3D3B45",
"e  c #413D44",
"r  c #434444",
"t  c #4E4E42",
"y  c #44464A",
"u  c #46494C",
"i  c #534D41",
"p  c #524749",
"a  c #465047",
"s  c #4A5247",
"d  c #4C564B",
"f  c #4A584B",
"g  c #545145",
"h  c #5A5546",
"j  c #51524E",
"k  c #58574A",
"l  c #4D5452",
"z  c #515652",
"x  c #535D56",
"c  c #5C5B56",
"v  c #545E59",
"b  c #644643",
"n  c #6F5A44",
"m  c #6D5A4D",
"M  c #745D4D",
"N  c #7A5F4D",
"B  c #745F50",
"V  c #566157",
"C  c #5A655A",
"Z  c #5D6E5E",
"A  c #5F715F",
"S  c #79634D",
"D  c #616555",
"F  c #63695C",
"G  c #796652",
"H  c #7C6C59",
"J  c #7C715D",
"K  c #5F7160",
"L  c #636D61",
"P  c #657363",
"I  c #697361",
"U  c #677865",
"Y  c #6B7967",
"T  c #6C7B68",
"R  c #7E7561",
"E  c #727C6A",
"W  c #833E2F",
"Q  c #A04231",
"!  c #A04B32",
"~  c #A84837",
"^  c #A95F3A",
"/  c #93613D",
"(  c #AF6D3F",
")  c #D75E3A",
"_  c #DA613D",
"`  c #945142",
"'  c #956644",
"]  c #846853",
"[  c #86735C",
"{  c #97725B",
"}  c #B66144",
"|  c #BB7048",
" . c #897962",
".. c #9C7B64",
"X. c #A47B63",
"o. c #A67E66",
"O. c #E47A46",
"+. c #74826E",
"@. c #768570",
"#. c #7B8572",
"$. c #7F8B75",
"%. c #7A8478",
"&. c #948067",
"*. c #818D77",
"=. c #828E78",
"-. c #88937C",
";. c #8B957D",
":. c #A88564",
">. c #A78369",
",. c #A5836B",
"<. c #A98D6E",
"1. c #BA886D",
"2. c #B7906C",
"3. c #A78971",
"4. c #A98A71",
"5. c #B18A70",
"6. c #AA9475",
"7. c #A9967A",
"8. c #B89778",
"9. c #BB9B7E",
"0. c #BCA27E",
"q. c #C48C6F",
"w. c #CB8E6D",
"e. c #D59A6F",
"r. c #C58E72",
"t. c #CC9375",
"y. c #C79778",
"u. c #CC9B7B",
"i. c #D49872",
"p. c #D59A75",
"a. c #D29C7E",
"s. c #D9A478",
"d. c #DBA47B",
"f. c #DDAB7D",
"g. c #E1A779",
"h. c #E5AB7C",
"j. c #8C9680",
"k. c #8C9882",
"l. c #919B83",
"z. c #8D9C90",
"x. c #BA9E81",
"c. c #95A08F",
"v. c #9BA698",
"b. c #BBA483",
"n. c #B7A988",
"m. c #BDAB8A",
"M. c #A2AD9E",
"N. c #9FABA6",
"B. c #A5B0A0",
"V. c #A9B6B5",
"C. c #D5A284",
"Z. c #DCA684",
"A. c #DBA788",
"S. c #D6AB88",
"D. c #D9AC88",
"F. c #DCAB8C",
"G. c #CEB08C",
"H. c #D6B691",
"J. c #DDB291",
"K. c #DCBB96",
"L. c #E4AE84",
"P. c #E3AE8A",
"I. c #E5B282",
"U. c #E6B28B",
"Y. c #E5BA8C",
"T. c #E6B595",
"R. c #E8B796",
"E. c #E4BB94",
"W. c #E8BF92",
"Q. c #E6BD9A",
"!. c #E8BD9A",
"~. c #B9C6BC",
"^. c #DBC29C",
"/. c #E6C69A",
"(. c #E4C59C",
"). c #E8C49B",
"_. c #DDC8A1",
"`. c #E8C5A0",
"'. c #E4CBA3",
"]. c #E9CCA4",
"[. c #E8D1A7",
"{. c #E9D3A9",
"}. c #C1CFCD",
"|. c #CAD7D3",
" X c #E0EDF1",
".X c #E4F2F5",
/* pixels */
"{.{.{.{.[./.h.s.w.t.A.T.R.T.T.T.^.E.I.h.U.Z.t.t.A.R.T.U.h.h.U.T.",
"{.{.{.[.).Y.g.e.t.C.P.T.T.F.x.7.7.0.s.d.Z.C.a.a.P.R.!.T.h.h.U.T.",
"{.{.[.).Y.d.e.t.a.C.F.P.F.9.H g g H 2.e.w.t.a.D.T.!.).E.h.h.U.T.",
"/././.).I.s.w.q.5.3.3.3.,.[ k 2 2 h ] { { ..,.0.G.!.).W.I.L.U.T.",
"I.I.I.I.I.C.q.X.B i p i 8 h C U Y D 8 6 4 5 8 J b.K.Y.I.U.U.T.R.",
"h.g.s.p.d.y.>.] h y l v V F #.;.-.I 2 . $ 2 2 k  .8.d.L.W.!.R.R.",
"U.L.i.w.q.o.S k F %.v.V.V.N.c.l.;.I 2 + d I I C h S 5.J.).).!.R.",
"Z.C.C.1.o.H t a T v.|. X X|.M.l.-.I 2 2 I -.-.J s g  .b.K.].`.!.",
"t.C.S.7.G 5 a C $.B.|..X X|.M.l.;.F = = I j.l.%.Z s s J m._.]./.",
"a.C.K.7.g & f U $.v.~.|.}.~.v.;.;.I = = I ;.k.$.I a % g 6.H.K.K.",
"^.^._.7.5 $ f Y =.c.M.v.z.k.;.;.;.F 2 2 I ;.j. .D r + 5 &.y.u.u.",
"[.{.'.6.8 $ f Y $.;.;.=.@.+.@.$.$.I d d E ;.j.*.c - O 4 ..t.t.t.",
"{.{.^.6.6 $ f U =.;.;.-.$.@.+.U T T Y E *.;.;.E c - o 4 X.C.A.A.",
"/././.<.6 $ a L @.=.;.;.;.=.+.+.T @.*.;.;.;.=.E c - O 4 ,.F.R.R.",
"h.I.h.:.8 O 3 x P +.=.;.;.-.*.$.$.*.;.;.;.=.E L j - O 5 ,.T.R.R.",
"h.h.f.:.8 O - l C U @.$.=.*.$.$.*.$.*.*.*.@.Y C j - O 8 >.A.U.P.",
"U.U.D.3.8 O - j C K U U T T T T T T T Y T U K C d - O 7 :.d.h.h.",
"!.!.E.6.i O - j C K K K A A A A A A A A A K K C j - O 7 :.f.I.I.",
"].].(.6.8 O - j C K A Z A Z Z Z A Z A Z Z A A C j - o 7 <.E././.",
"{.{._.6.5 O - j C A K K A A A A A Z A A A A A C z - O 6 6.'.].).",
"{.{.'.6.6 O , j C A A K K A K P A K K K K A P C j - + 8 6.'.'.).",
"].].'.9.S 4 , r z C A K K K K K K K K K K Z C z r , 5 G b./.`.!.",
"!.!.E.C.o.N 4 % r z C A Z Z Z A Z Z Z Z Z C x r & 4 [ 0.^.[.].].",
"D.A.S.y.X.M 3 % w u z x v V v v V v V v x z u - % 3 R n._.{.{.{.",
"t.t.q.X.N > , e e e y y y y y u y y y u y y e w , , i R m._.[.{.",
"t.1.X.] 1 < 1 b p y y y y y y y y u y y y y u p b 1 1 9  .8.G.K.",
"C.5.B 9 W Q ~ ` m v x x v x x x x x x x x x v m ` ~ Q W 9 m o.y.",
"F.4.i : ~ ) _ } S V x x v v v V V v v x x v c S } ) ) ! : > { r.",
"J.4.8 6 ^ O.O.| S j u y y y y y y y y y y u l N | O.O.^ : 7 o.C.",
"Q.b.[ n / ( ( ' m l u y w q # # @ # * w y u d m ' ( ( / 0 G x.K.",
"'.^.m.&.0 ; : 6 k V V l w * X X X o * y l V V k 6 : : 0  .x.K.`.",
"{.{._.7.8 .   + f Z K x y # X     X @ y V K A f +     7 5.J.'.{."
};
