/* XPM */
static char *result[] = {
/* columns rows colors chars-per-pixel */
"32 32 186 2 ",
"   c #131A1A",
".  c #1D201E",
"X  c #1E2225",
"o  c #25272A",
"O  c #2B2C2B",
"+  c #27322D",
"@  c #2B332E",
"#  c #2F2E37",
"$  c #2E3630",
"%  c #333433",
"&  c #353D36",
"*  c #373E38",
"=  c #3C3B3D",
"-  c #4F3C2A",
";  c #57382C",
":  c #4C3F35",
">  c #423D3C",
",  c #5C3730",
"<  c #673F39",
"1  c #3A4139",
"2  c #43443C",
"3  c #4D443A",
"4  c #4D463A",
"5  c #524636",
"6  c #51473C",
"7  c #52493C",
"8  c #654539",
"9  c #6A523E",
"0  c #3A3542",
"q  c #3D3A44",
"w  c #413E45",
"e  c #434444",
"r  c #4E4E42",
"t  c #434349",
"y  c #484849",
"u  c #494A4D",
"i  c #534D41",
"p  c #5B4F4F",
"a  c #465047",
"s  c #4A5247",
"d  c #4C564A",
"f  c #4A584B",
"g  c #545145",
"h  c #5A5546",
"j  c #52524E",
"k  c #595649",
"l  c #53594D",
"z  c #4F4F51",
"x  c #4D5251",
"c  c #535553",
"v  c #525A52",
"b  c #5D5C56",
"n  c #545B5B",
"m  c #5F5D58",
"M  c #684946",
"N  c #6E5B49",
"B  c #745D4D",
"V  c #795E4C",
"C  c #605F59",
"Z  c #556156",
"A  c #5B655B",
"S  c #5C6A5B",
"D  c #5F705F",
"F  c #79634D",
"G  c #616555",
"H  c #62665B",
"J  c #636D5E",
"K  c #786754",
"L  c #7C6C59",
"P  c #7C715D",
"I  c #5E7060",
"U  c #636C61",
"Y  c #657362",
"T  c #697362",
"R  c #6A7A67",
"E  c #6D7D69",
"W  c #7E7561",
"Q  c #727A6A",
"!  c #797E6E",
"~  c #833F30",
"^  c #9F4130",
"/  c #A44A35",
"(  c #A95F3A",
")  c #93613D",
"_  c #AF6D3F",
"`  c #D75E3A",
"'  c #DB613D",
"]  c #9D5848",
"[  c #956644",
"{  c #856553",
"}  c #846C5A",
"|  c #86735C",
" . c #97725B",
".. c #BF684A",
"X. c #BF734B",
"o. c #897962",
"O. c #997862",
"+. c #A47B63",
"@. c #A67E66",
"#. c #E47B46",
"$. c #75836F",
"%. c #7A806F",
"&. c #7A8471",
"*. c #7D8974",
"=. c #7A8478",
"-. c #948067",
";. c #818C76",
":. c #838E78",
">. c #88937C",
",. c #8B957D",
"<. c #A88564",
"1. c #A78369",
"2. c #A5836B",
"3. c #A98D6E",
"4. c #BA886D",
"5. c #B7906C",
"6. c #A78971",
"7. c #A98A71",
"8. c #B18A70",
"9. c #AA9475",
"0. c #A9967A",
"q. c #B89778",
"w. c #BB9B7E",
"e. c #BCA27E",
"r. c #C48C6F",
"t. c #CB8E6D",
"y. c #D59A6F",
"u. c #C58E72",
"i. c #CC9375",
"p. c #C79778",
"a. c #CC9B7B",
"s. c #D49872",
"d. c #D59A75",
"f. c #D29C7E",
"g. c #D9A478",
"h. c #DBA47B",
"j. c #DDAB7D",
"k. c #E1A779",
"l. c #E5AB7C",
"z. c #889684",
"x. c #919B83",
"c. c #8E9D90",
"v. c #BA9E81",
"b. c #95A08F",
"n. c #9BA698",
"m. c #BBA483",
"M. c #BBAA8A",
"N. c #A2AD9E",
"B. c #9FABA6",
"V. c #A5B0A0",
"C. c #A9B6B5",
"Z. c #D5A284",
"A. c #DCA684",
"S. c #DBA788",
"D. c #D3AD89",
"F. c #D9AC88",
"G. c #DCAB8C",
"H. c #D6B691",
"J. c #DDB291",
"K. c #DCBB96",
"L. c #E4AE84",
"P. c #E3AE8A",
"I. c #E5B282",
"U. c #E6B28B",
"Y. c #E5BA8C",
"T. c #E6B595",
"R. c #E8B796",
"E. c #E4BB94",
"W. c #E8BF92",
"Q. c #E6BD9A",
"!. c #E8BD9A",
"~. c #B9C6BC",
"^. c #DBC29C",
"/. c #E6C69A",
"(. c #E4C59C",
"). c #E8C49B",
"_. c #DDC8A1",
"`. c #E8C5A0",
"'. c #E4CBA3",
"]. c #E9CCA4",
"[. c #E8D1A7",
"{. c #E9D3A9",
"}. c #C1CFCD",
"|. c #CAD7D3",
" X c #E0EDF1",
".X c #E4F2F5",
/* pixels */
"{.{.{.{.[./.l.g.t.i.S.T.R.T.J.T.^.E.I.l.I.S.i.i.S.R.R.U.l.l.U.T.",
"{.{.{.[.).Y.k.y.s.f.P.T.T.G.v.0.0.m.g.h.A.Z.f.f.P.R.Q.U.l.l.U.T.",
"{.{.[.).Y.h.y.i.f.Z.G.J.G.w.L k 7 P 5.y.i.i.f.F.J.Q.`.W.L.l.U.R.",
"/././.).I.g.t.r.8.6.6.6.2.| k 1 2 h {  . . .2.e.J.Q.).W.I.L.U.T.",
"I.I.I.I.I.Z.r.+.B i i i 7 g G Y R G 5 5 5 2 7 P m.K.Y.I.U.U.T.R.",
"l.k.g.d.h.p.@.} h y x n Z Y *.,.>.Y 1 o $ 1 2 h o.q.h.I.Y.!.R.R.",
"U.L.s.t.r.1.F k H =.n.C.C.B.b.x.,.T 1 + g T Y G h F 8.J.(.`.!.R.",
"A.Z.Z.4.@.K r s E B.}. X X|.N.x.>.Y 1 1 J >.,.E s g o.v.K.].`.!.",
"i.f.D.q.K 7 a S $.V.|..X X|.N.x.:.T 1 & T ,.,.%.S s r P M._.].].",
"a.S.K.0.g & f R *.n.~.|.}.~.n.,.,.Y & 1 T ,.x.;.Y a & g 9.H.K.K.",
"^.^._.0.4 $ f R :.b.N.n.c.z.,.,.>.T 1 1 T ,.,.;.H 2 O 4 -.p.a.a.",
"[.{._.0.7 @ f R *.,.,.>.*.$.*.*.;.T d l %.,.,.%.C = O 4 O.u.i.i.",
"{.{./.9.5 $ f R :.,.>.:.;.$.$.Y T Y T $.;.,.,.%.C = O : +.Z.S.S.",
"/././.9.4 @ a Y *.:.$.T T G Z f f Z S J T Q ;.%.b q o : 2.J.T.T.",
"l.I.j.<.5 @ e H &.Q d 1 & $ $ + + @ & & 1 l Q ! C = O 6 6.G.R.R.",
"l.l.k.<.7 O = m $.T 1                     * T ! C = o i 1.L.U.U.",
"U.U.G.3.7 O = C $.T 1                     * Y ! m = O 5 <.h.l.l.",
"!.!.E.9.7 O = b Q T s 1 $ @ .     . @ $ 1 s T Q b = O 7 <.j.I.l.",
"].].^.9.7 O = c U T T T Y l @     @ l Y T R R J c = O 3 3.^././.",
"{.{.'.9.4 O = j S Y $.:.:.T &     & T :.:.$.Y S j = O 3 9./.[.].",
"{.{.'.9.7 O > j A Y R $.:.T *     & T :.&.R I A j = @ 4 9.^.]./.",
"].]./.w.V 6 > e v A D $.*.T *     1 T ;.$.D A l e > 6 K a.'.).(.",
"Q.Q.Q.Z.@.V 2 % e v A R =.Y 0     & T &.R S v y % 4 | e.^.[.].].",
"G.F.S.p.@.V > $ = y x S Y A * X . & A T A d y 0 % 2 W M._.{.{.{.",
"i.i.r.+.B : > w w w w z z w 0 # 0 q u z z w w w > > i W M.'.[.[.",
"i.4.+.{ < , < M p z n z z w q 0 0 q q z z c c p M < , 8 o.q.D.K.",
"Z.8.B 8 ~ ^ / ] } Q Q T A z w q 0 q z A T Q Q } ] / / ~ < N 2.p.",
"J.6.i ; / ` ' ..O.! Q T A c w q q q z A T Q Q O...' ` / ; : O.4.",
"T.7.7 5 ( #.#.X.} m c x u q 0 0 0 0 q u x n m { X.#.#.( ; 5 @.Z.",
"E.m.| N ) _ _ [ N x u t q 0 # 0 # 0 0 q t u j N [ _ _ ) 9 L v.K.",
"'.^.M.O.9 5 ; 5 l Z Z x q 0 o X X X 0 q x Z A l 3 - ; 9 O.v.K.`.",
"[.[.'.9.7 .   @ f I I n t # X     X # t Z I S s @   . 3 6.H.`.{."
};
