/* XPM */
static char *result[] = {
/* columns rows colors chars-per-pixel */
"32 32 180 2 ",
"   c #141B1B",
".  c #181D1B",
"X  c #222625",
"o  c #262A26",
"O  c #252629",
"+  c #262A2A",
"@  c #2A2B2B",
"#  c #2C332F",
"$  c #2F2E37",
"%  c #302E37",
"&  c #312F3A",
"*  c #2E3432",
"=  c #343434",
"-  c #3D3536",
";  c #343B35",
":  c #35323C",
">  c #353C3A",
",  c #3C3B3C",
"<  c #492E28",
"1  c #4B382A",
"2  c #503A29",
"3  c #433B35",
"4  c #4B3E36",
"5  c #433C39",
"6  c #55373C",
"7  c #643B3E",
"8  c #7F3A31",
"9  c #3D433A",
"0  c #4E4334",
"q  c #42433B",
"w  c #4D443A",
"e  c #4F483D",
"r  c #51473B",
"t  c #52493C",
"y  c #3A3542",
"u  c #3D3B43",
"i  c #403D45",
"p  c #3E4945",
"a  c #434443",
"s  c #464B46",
"d  c #4D4E42",
"f  c #44454A",
"g  c #534D41",
"h  c #4A5246",
"j  c #475549",
"k  c #4B554A",
"l  c #555144",
"z  c #51524E",
"x  c #595649",
"c  c #51594D",
"v  c #5A5849",
"b  c #4C5250",
"n  c #545551",
"m  c #545B54",
"M  c #5D5C57",
"N  c #515F58",
"B  c #6F5648",
"V  c #74594B",
"C  c #755F50",
"Z  c #5F6455",
"A  c #536058",
"S  c #5A665A",
"D  c #5D6D5D",
"F  c #5E705F",
"G  c #79634D",
"H  c #61685A",
"J  c #796655",
"K  c #7D6955",
"L  c #7B715D",
"P  c #5F7160",
"I  c #636D60",
"U  c #657161",
"Y  c #697361",
"T  c #677865",
"R  c #6B7A66",
"E  c #6D7D69",
"W  c #737C6A",
"Q  c #885B38",
"!  c #A34834",
"~  c #A95F38",
"^  c #AE6D3E",
"/  c #D95F3B",
"(  c #826A57",
")  c #966E5A",
"_  c #86735D",
"`  c #A57E5C",
"'  c #8B7862",
"]  c #9C7B64",
"[  c #A37C64",
"{  c #E37A45",
"}  c #77826F",
"|  c #758471",
" . c #7B8371",
".. c #7D8A74",
"X. c #808C76",
"o. c #838E78",
"O. c #86917B",
"+. c #8C967E",
"@. c #8E987F",
"#. c #A98365",
"$. c #A6846C",
"%. c #AC856C",
"&. c #A98E6E",
"*. c #BF896D",
"=. c #AA8A72",
"-. c #B38C72",
";. c #A79375",
":. c #AA9475",
">. c #AB9279",
",. c #AB9A7C",
"<. c #B69173",
"1. c #B99676",
"2. c #BB9B7A",
"3. c #CA8E6D",
"4. c #D99C6F",
"5. c #C38E72",
"6. c #C69577",
"7. c #CC9375",
"8. c #CD9B7C",
"9. c #D49872",
"0. c #DA9F76",
"q. c #D19B7D",
"w. c #DCA075",
"e. c #D6A67C",
"r. c #DBA47B",
"t. c #DDAB7D",
"y. c #E2A779",
"u. c #E5AA7C",
"i. c #7E8E80",
"p. c #8B9782",
"a. c #8F9882",
"s. c #85958A",
"d. c #929D8B",
"f. c #BA9E81",
"g. c #9AA694",
"h. c #9DA996",
"j. c #BAA482",
"k. c #BDAB8A",
"l. c #A3AE9E",
"z. c #A5AFA0",
"x. c #ABBAB2",
"c. c #CE9D80",
"v. c #D49F80",
"b. c #CFA483",
"n. c #D5A283",
"m. c #DBA585",
"M. c #D8AB87",
"N. c #DCA788",
"B. c #DCAB8B",
"V. c #DDB28C",
"C. c #DFAF90",
"Z. c #D6B691",
"A. c #DEB191",
"S. c #DDBC95",
"D. c #E4AE84",
"F. c #E2AD8A",
"G. c #E5B282",
"H. c #E6B28B",
"J. c #E5BA8C",
"K. c #E6B594",
"L. c #E8B796",
"P. c #E5BA95",
"I. c #E8BC95",
"U. c #E7BD9A",
"Y. c #E8BE9A",
"T. c #BBC7BD",
"R. c #DCC29C",
"E. c #E6C79B",
"W. c #E4C49C",
"Q. c #E8C49C",
"!. c #DCC8A0",
"~. c #E9C6A0",
"^. c #E3CBA3",
"/. c #E9CCA4",
"(. c #E9D1A7",
"). c #E9D3A9",
"_. c #BDCCCA",
"`. c #CAD7D3",
"'. c #E1EFF3",
"]. c #E3F1F5",
/* pixels */
").).).).).E.u.w.3.7.n.F.K.B.A.S.~.S.t.r.M.n.7.7.N.L.L.H.u.u.H.L.",
").).)./.E.J.t.4.7.5.-.=.=.=.=.>.,.;.#.` [ %.5.q.F.I.I.K.u.u.H.L.",
").).(.E.J.t.9.9.q.-.K g g g g g l t t 0 0 V %.M.K.U.Q.I.D.u.H.K.",
"E.E.E.Q.G.4.3.*.%.' x q 9 9 9 9 9 9 9 9 q l _ 2.Z.U.Q.J.G.D.H.L.",
"G.G.G.G.D.v.5.[ G v Z Y Y U U U Y U U Y U Z v L j.S.J.G.H.H.L.L.",
"u.y.0.w.e.8.[ K l c Y |  ... .| ......| ..Y c v ' 1.e.D.J.U.L.L.",
"H.r.9.7.5.[ J x S R | | } } T | E } R } } R T Z v G -.V.W.~.U.L.",
"N.m.8.5.[ K g h R O.i.s.i...| | R R R T T } ..R h l ' f.S./.~.Y.",
"7.c.M.,.G e j A | g.T.T._.x.d.............o.p. .S h h L k.^.^.E.",
"8.M.S.,.q 9 j | ..l.`.].'.`.l.@.O.+.+.+.p.+.+...U h ; l ;.Z.P.S.",
"S.R.!.;.e 9 9 | ..l.`.].].`.z.@.+.@.+.@.+.+.p. .H a @ e $.6.8.8.",
").).^.:.q # 9 D ..h.T.`.`.T.h.@.+.+.+.@.p.+.p. .M , @ w ' 5.7.7.",
").).E.:.t o o e | @.g.h.l.g.a.@.+.+.+.+.a.+.+.' M , @ 4 [ n.N.N.",
"E.E.E.2.G 3 o # c T } | ..@.@.+.+.+.+.+.+.@.+.W M , @ w $.B.L.K.",
"G.G.G.e.<.K - o # 9 # 9 } O.@.@.+.+.@.+.+.+.+. .M , @ r $.B.U.L.",
"u.u.u.e.<.L - .       9 T O.@.@.a.@.+.@.+.@.p. .M , @ t $.F.H.F.",
"F.H.H.2.K q o .     . ; Y +.@.p.+.+.+.+.+.a.+.W M , @ r #.t.u.u.",
"U.U.S.:.t @ # ; ; ; 9 j T ......X.......X.....W M , @ r #.t.G.u.",
"/./.R.:.t ; x Y U U Y Y R R T E R R E E R E R I n , @ r &.W.E.E.",
").).^.;.0 9 Y O.O.....} T F F F P F F F P P P S z , @ w &.^.(.E.",
").)./.:.t q Y o.| E E T U P F F F F P P D P D S k , # e :.E.^.Q.",
"/./.^.2.V l H H H D F P P P F F P P P P P D S m a q w J 2.(.~.Y.",
"U.U.P.b.#.( l a z m S F P D P P D P D P P S m a - w _ j.R./././.",
"N.N.N.n.7.[ C d 5 a k N A A A A A A A A N m f > @ e ;.!.).).).).",
"7.7.7.q.v.c.<._ w = u f f f f f f f f p f f u : o g ,.^.).).).(.",
"7.7.7.q.F.U.C.$.r # a f y 5 6 7 7 6 : y u f u $ + g ,.R.W.S.S.S.",
"N.N.N.K.Y.~.S.=.t > m m , < 8 ! ! 8 < * s b i $ O d =.B.n.8.8.8.",
"K.K.U.W.~.~.A.$.r ; m m = < ! / / ! < # p b f $ O w ] c.q.7.7.7.",
"L.L.~./.~.Y.A.$.r % q u @ 2 ^ { { ~ < o & u u % O 4 ) 7.n.N.N.N.",
"~.~././.U.L.A.-.B 3 = $ # 4 Q ^ ` Q 2 o & y : : 4 B [ q.F.K.U.U.",
"/./.(./.U.L.K.c.[ V 5 * 9 d 0 2 1 < < & y & O 5 J -.c.B.K.Y.~./.",
").(.)./.U.K.K.N.*.) w ; j j * .   X % y y & O 4 [ N.K.K.K.U./.)."
};
