/* XPM */
static char *result[] = {
/* columns rows colors chars-per-pixel */
"32 32 184 2 ",
"   c #141B1B",
".  c #181D1B",
"X  c #222524",
"o  c #262825",
"O  c #252729",
"+  c #262A29",
"@  c #2A2C2B",
"#  c #2C342E",
"$  c #3D362F",
"%  c #2F2E37",
"&  c #312F3A",
"*  c #2E3432",
"=  c #333534",
"-  c #343C35",
";  c #35323C",
":  c #3D3339",
">  c #353C3A",
",  c #3C3B3C",
"<  c #492E28",
"1  c #4B382A",
"2  c #503A29",
"3  c #443C36",
"4  c #493E35",
"5  c #423D3A",
"6  c #55373C",
"7  c #643B3E",
"8  c #7F3A31",
"9  c #3D433A",
"0  c #4D4335",
"q  c #42453D",
"w  c #4C443A",
"e  c #4E493D",
"r  c #51463B",
"t  c #52493C",
"y  c #3A3542",
"u  c #3D3B43",
"i  c #403D45",
"p  c #3D4242",
"a  c #3E4945",
"s  c #434543",
"d  c #464C47",
"f  c #4D4E42",
"g  c #44454A",
"h  c #524D41",
"j  c #4A5246",
"k  c #475549",
"l  c #4B554A",
"z  c #545144",
"x  c #595445",
"c  c #51524E",
"v  c #595649",
"b  c #51594D",
"n  c #5A594B",
"m  c #4C5250",
"M  c #545551",
"N  c #545B54",
"B  c #5D5C57",
"V  c #515F58",
"C  c #735C4C",
"Z  c #7A5E4E",
"A  c #755F50",
"S  c #5F6455",
"D  c #536058",
"F  c #5A665A",
"G  c #5D6D5D",
"H  c #5E705F",
"J  c #79654E",
"K  c #61685A",
"L  c #776655",
"P  c #7B6554",
"I  c #7C6955",
"U  c #7B715D",
"Y  c #5F7160",
"T  c #636D60",
"R  c #657161",
"E  c #697361",
"W  c #677865",
"Q  c #6B7A66",
"!  c #6D7D69",
"~  c #737C6A",
"^  c #885B38",
"/  c #A34834",
"(  c #AE6D3E",
")  c #D95F3B",
"_  c #946D59",
"`  c #86745E",
"'  c #99755F",
"]  c #A57E5C",
"[  c #8B7962",
"{  c #9B7A63",
"}  c #A37C65",
"|  c #AA7F65",
" . c #E37A45",
".. c #77826F",
"X. c #758471",
"o. c #7B8371",
"O. c #7D8A74",
"+. c #808C76",
"@. c #838E78",
"#. c #86917B",
"$. c #8C967E",
"%. c #8E987F",
"&. c #A88665",
"*. c #A5816A",
"=. c #AD846C",
"-. c #A88C6E",
";. c #BF896D",
":. c #BA916F",
">. c #AA8B73",
",. c #B38C72",
"<. c #B88F76",
"1. c #AA9475",
"2. c #AA9479",
"3. c #A99678",
"4. c #B89577",
"5. c #BA9A7C",
"6. c #C48C6F",
"7. c #CA8E6D",
"8. c #D99C6F",
"9. c #C48E72",
"0. c #C88F73",
"q. c #C79477",
"w. c #CC9375",
"e. c #CD9B7B",
"r. c #D49872",
"t. c #DA9F76",
"y. c #D19B7D",
"u. c #DAA277",
"i. c #DCA57B",
"p. c #DDAC7D",
"a. c #E2A779",
"s. c #E5AB7C",
"d. c #7E8E80",
"f. c #8B9782",
"g. c #8F9882",
"h. c #85958A",
"j. c #929D8B",
"k. c #BA9E81",
"l. c #9AA694",
"z. c #9DA996",
"x. c #BAA482",
"c. c #BDAB8A",
"v. c #A3AE9E",
"b. c #ABBAB2",
"n. c #B1BEB6",
"m. c #CFA483",
"M. c #D6A384",
"N. c #DBA686",
"B. c #D8AA87",
"V. c #DCA788",
"C. c #DCAA8B",
"Z. c #DDB28C",
"A. c #DFAF90",
"S. c #D6B691",
"D. c #DEB291",
"F. c #DDBC95",
"G. c #E4AE84",
"H. c #E5AF89",
"J. c #E5B282",
"K. c #E6B28B",
"L. c #E5BA8C",
"P. c #E6B594",
"I. c #E8B796",
"U. c #E5BA95",
"Y. c #E8BF92",
"T. c #E6BD9A",
"R. c #E8BD9A",
"E. c #BBC7BD",
"W. c #DCC39C",
"Q. c #E3C49C",
"!. c #E8C49B",
"~. c #E8CA9E",
"^. c #DFCAA1",
"/. c #E6C7A0",
"(. c #E9C6A0",
"). c #E3CBA3",
"_. c #E9CCA4",
"`. c #E8D1A7",
"'. c #E9D3A9",
"]. c #BDCCCA",
"[. c #CAD7D3",
"{. c #CCD8D4",
"}. c #E1EFF3",
"|. c #E3F1F5",
/* pixels */
"'.'.`.'.`.!.s.8.7.w.M.C.P.A.P.F.F.Q.p.u.N.M.w.w.V.P.P.K.s.s.K.P.",
"'.'.`.`.~.!.u.8.w.0.,.-.>.>.>.2.3.2.&.] } =.9.y.C.U.Y.P.s.s.K.P.",
"'.`.`.!.L.i.8.7.y.,.I t e h h z z t t 0 r C =.M.P.T.!.Y.s.s.K.P.",
"!.~.!.!.J.u.7.:.=.[ v q , 9 9 9 9 9 9 9 9 h [ 5.D.T.!.Y.J.G.P.I.",
"J.J.J.J.J.i.;.} A n S R E E K E E E R R R S n U x.F.L.J.K.K.P.I.",
"s.a.8.t.i.e.| I x b E O.O.O.+.O.O.O.O.X.X.E b n [ 5.i.G.I.Y.I.I.",
"K.N.r.w.6.*.L c S E W ..Q Q ~ ! Q X...X.X.! E S x J ,.Z.R.(.R.I.",
"N.M.e.9.} I h l Q O.X.Q ..Q Q E Q X.O.d.h.f.#.! l e ` k.W.).(.!.",
"w.u.B.3.L e k F O.#.@.O.+.+.+.+.O.j.b.].].n.l.o.F j e U c.^.).).",
"y.B.S.k.t = k R O.$.$.$.$.$.#.$.g.v.[.}.}.{.v.+.W b 9 e 3.S.W.W.",
"W.W.^.3.e @ s K o.$.%.$.%.$.$.$.g.v.{.}.|.{.v.+.W k 9 w *.q.r.e.",
"'.'.^.3.r @ , S o.$.%.$.$.$.$.$.g.z.E.{.{.E.v.O.F 9 + q ' 9.w.w.",
"'.'.~.1.e o , B o.$.$.%.$.$.$.$.$.j.z.v.v.z.g.Q d + X 4 { M.V.V.",
"Q.Q.Q.-.t @ , B ..$.%.$.%.$.$.$.$.$.$.@.~ W E b # O $ C <.Z.U.P.",
"s.J.p.&.r @ , B ~ $.$.$.$.%.$.$.$.%.$.Q k - - # X $ P ,.M.P.P.I.",
"s.s.p.&.t @ , B +.$.$.$.%.$.%.$.%.%.$.E -       . $ I 4.M.H.K.K.",
"K.K.V.-.t @ , B o.$.f.$.$.g.$.f.$.$.$.E - .     . o 0 J :.p.s.s.",
"R.R.F.1.h @ , B ~ O.O.O.O.O.O.O.+.+.+.E l > - - - * o t &.p.J.s.",
"_._.Q.1.t @ , M K ! ! Q ! Q Q W Q ! Q Q E E E E E b = r -.W.~.!.",
"'.'.).1.w @ , c F Y Y H H Y H H H Y K W ..O.+.@.#.R 9 w -.Q.`.~.",
"'.'.).3.t @ 5 c F G H H H H H H H G H R W ! ! X.+.E 9 t 1.W.~.~.",
"_._.~.5.C w 5 s N F G Y Y Y Y Y H Y H Y Y G G T T S n I 5.`.(.!.",
"T.R.U.m.| Z w = s N F Y H H Y Y H H H H Y F N d q x [ x.W._._._.",
"V.V.V.M.0.' w @ > g N D D D V N V V D D V l s 5 t I x.^.'.'.'.'.",
"q.w.w.y.y.*.h O % u g g g g g g g g g d g u = e ` 5.W.`.'.'.'.'.",
"w.w.w.y.B.>.h O % u g u y y 6 7 7 6 : u g p * h 3.W._./.F.F.F.F.",
"V.N.V.P.F.2.h O % g m a = < 8 / / 8 < , B N - h 3.F.Y.D.M.y.e.e.",
"P.P.R.!.F.>.h X % g m a # < / ) ) / < = N N > e -.M.V.M.y.w.q.q.",
"I.T.(._.T.>.h % % u i ; X < (  . .( 2 @ u p = e { 9.w.y.M.N.V.V.",
"R.(._._.F.k.P 5 : & y & @ < ^ ( ( ^ 0 @ % : w C | 0.w.y.C.P.T.R.",
"_._._._.T.C.<.` 3 O & ; ; = 1 1 2 0 f a * 5 Z } w.N.V.H.P.R.(._.",
"'.'.'._.R.P.V.{ 4 O % y y % X . . # k k > 4 _ 9.N.P.I.P.P.R._.'."
};
