/* XPM */
static char *result[] = {
/* columns rows colors chars-per-pixel */
"32 32 102 2 ",
"   c #4C334B",
".  c #54374C",
"X  c #59374D",
"o  c #56384C",
"O  c #5D394B",
"+  c #5E3B50",
"@  c #643C4A",
"#  c #6A3E4A",
"$  c #723E4E",
"%  c #633D51",
"&  c #6B3F51",
"*  c #66424C",
"=  c #6C434B",
"-  c #6F494E",
";  c #74434B",
":  c #7B444D",
">  c #72494B",
",  c #7C4B4C",
"<  c #7C504E",
"1  c #654152",
"2  c #6C4152",
"3  c #734351",
"4  c #7C4550",
"5  c #734B52",
"6  c #7B4A53",
"7  c #7D5453",
"8  c #7F5952",
"9  c #83454E",
"0  c #8A454D",
"q  c #844A4D",
"w  c #8C4A4E",
"e  c #924B4D",
"r  c #9B4F4D",
"t  c #84534C",
"y  c #8A544E",
"u  c #8C5A4F",
"i  c #94534D",
"p  c #9B564D",
"a  c #925A4E",
"s  c #9B594E",
"d  c #824751",
"f  c #884750",
"g  c #844B51",
"h  c #8B4C51",
"j  c #835354",
"k  c #8D5352",
"l  c #875852",
"z  c #8C5A53",
"x  c #935553",
"c  c #935B53",
"v  c #9B5D53",
"b  c #A7574E",
"n  c #A35C4E",
"m  c #AA5E4F",
"M  c #A15D52",
"N  c #8D6053",
"B  c #956456",
"V  c #9C6355",
"C  c #9E6B54",
"Z  c #9E6759",
"A  c #A5614E",
"S  c #AB634F",
"D  c #AF684F",
"F  c #B2664F",
"G  c #B5694F",
"H  c #A46351",
"J  c #AC6551",
"K  c #A26954",
"L  c #AC6B54",
"P  c #A46D5A",
"I  c #B46A51",
"U  c #BA6C51",
"Y  c #A67357",
"T  c #AA7154",
"R  c #AF7158",
"E  c #B57355",
"W  c #BC7354",
"Q  c #B77957",
"!  c #BF7B55",
"~  c #B4765A",
"^  c #B77A5A",
"/  c #BB7D5B",
"(  c #C27453",
")  c #C37B56",
"_  c #C97D56",
"`  c #C47E58",
"'  c #BD805B",
"]  c #C08057",
"[  c #C58359",
"{  c #CD8559",
"}  c #CF8B5D",
"|  c #D28658",
" . c #D58D5B",
".. c #CE905E",
"X. c #D7905C",
"o. c #DB945E",
"O. c #DE985F",
"+. c #D79560",
"@. c #D89560",
"#. c #DD9960",
"$. c #E19C60",
"%. c #E9A361",
/* pixels */
"$.$.$.#. .{ [ ' ! ! ! ) ) { X.O.o.o. .{ [ ' ! ! ! ! ) { o...Y B ",
"$.#.#.X.{ ) T K C C C K I W {  . .| ` E T P K K C D W _  .[ C N ",
"O.O.X.| ) A < = 2 - 1 > y H W ) _ W V t > 1 2 = = < H W { W N < ",
"| { ` W D u @   O O O @ , x m G G A < = o . O @ o = a D G A t > ",
"W I m p p q @ X 2 3 : : 0 y p n n i ; O @ # : : # ; t p n p , = ",
"n p 0 : : ; @ % 4 f e w : : w w w , # @ # : e 0 0 ; , q q q > = ",
"g , @ X @ % $ 3 0 0 0 9 # @ # # # # @ # : 0 e e 0 # # # ; ; ; # ",
"3 2 + . X @ : 0 f w w f ; - 2 # ; = # # 9 w w w 9 : # ; ; = # @ ",
": : & % 3 4 0 w k x v Z v c c k y j : : g l < , ; 9 w e w : # O ",
": 3 3 3 4 0 0 e x P ~ / / ^ R L J v j j B Z l < $ $ e r w , # @ ",
"d 3 $ $ f 0 0 h v ~ ..@.@.} [ ) E H l z ^ ' C 8 # @ 9 w 9 ; # @ ",
"h h g h w 0 9 h Z / #.%.$.X.| ` E H c C [ { Y 8 @ @ 9 w g , > = ",
"H H H V v x 4 g Z / @.$.o.| ) U J M A J ) W B 7 1 1 k Z v z , - ",
"W E ~ ~ R v d d v ~ } X.{ ( U J S S S I W G a > % 5 Z L L V t > ",
") ` ` _ W H h d x R ` _ W I I J F D D I W D u - 1 6 K ) W D t > ",
"W W ` ( U M h d x H E W U I I I F I F G U S t 2 % 6 L ) ( D t > ",
"m m A m M e 9 d e v I U I G U U I I F I U S q # * = c I I A t > ",
"i i w q 9 : $ 3 k v J I G D D D I G I G G n , # O = g c v a < > ",
"q > @ O O @ $ 4 h v I I I A c a S I J D F p ; @ % % * 2 > 5 > > ",
"> = X X X % $ 9 h M U I H a t u J F J m m p ; @ + % @ # & > > > ",
"# @ O O 3 : 9 0 x M I I k 7 B C J F m b b i ; @ @ & 9 0 0 : : - ",
"@ @ @ = d e e e w x n a > - k V H s r e i 0 # @ % ; 0 e e 9 > = ",
"@ @ $ 4 0 e e 0 $ # > = o O ; 6 ; ; ; ; ; # O . % 3 0 e e 9 # @ ",
"@ # ; 0 0 e e 9 # @ @ O X X @ % @ @ @ @ # @ . . % 3 0 e 0 $ # O ",
"> > : : w q 9 ; ; $ $ # % + % % % % 1 @ % + + + & 3 d d f 4 & X ",
"u y z a a y > # 3 4 4 3 3 6 7 j j 6 5 1 % % & 3 2 6 x c x k $ @ ",
"L R / ' Q V = X 3 f 0 h c Z / [ / R l 5 1 & 9 f d k P ^ Q H q - ",
"W ! { { ` C = O 3 f h e H ~ } X.| E B 5 2 2 f h f x ~ [ _ L t > ",
"G G ( U I v > % ; 4 f k V T ( ( ( J t ; 2 2 d f f i D U ( S t > ",
"b b r p p t ; % = ; 4 g u n A n n e ; # @ # 3 q : t s A m i > @ ",
"; ; ; ; ; ; # @ # # = > , , , , : ; # # @ # = > > > > q , > O . ",
"@ @ O @ # # # @ @ # = > = = = @ @ @ @ @ @ # = = = # = = = @     "
};
